<?xml version="1.0" standalone="no"?>
<!DOCTYPE svg PUBLIC "-//W3C//DTD SVG 20010904//EN"
 "http://www.w3.org/TR/2001/REC-SVG-20010904/DTD/svg10.dtd">
<svg version="1.0" xmlns="http://www.w3.org/2000/svg"
 width="1934.941524pt" height="1455.137679pt" viewBox="0 0 1934.941524 1455.137679"
 preserveAspectRatio="xMidYMid meet">
<metadata>
Created by potrace 1.12, written by Peter Selinger 2001-2015
</metadata>
<g transform="translate(-39.019082,1473.637679) scale(0.100000,-0.100000)"
fill="#000000" stroke="none">
<path d="M1255 14730 c-207 -33 -491 -200 -630 -370 -71 -87 -151 -233 -182
-335 -56 -182 -53 253 -53 -6562 0 -4173 3 -6318 10 -6370 25 -196 112 -397
228 -531 75 -86 204 -193 304 -250 94 -54 108 -60 233 -99 l90 -28 8815 0
8815 0 110 36 c393 127 674 458 731 859 11 79 13 1171 13 6375 1 6786 4 6386
-50 6560 -30 97 -112 258 -158 308 -20 23 -50 59 -66 80 -72 96 -280 228 -466
295 l-104 37 -8795 1 c-4837 1 -8817 -2 -8845 -6z m522 -1080 c62 -14 137 -65
162 -110 38 -69 54 -147 40 -205 -17 -74 -35 -105 -92 -158 -61 -57 -106 -71
-208 -64 -93 6 -141 34 -193 110 -70 103 -73 209 -9 308 42 65 85 97 151 115
57 15 94 16 149 4z m910 0 c144 -33 230 -171 202 -323 -13 -72 -53 -129 -123
-178 -48 -33 -52 -34 -151 -34 -99 0 -101 0 -149 35 -28 20 -64 60 -85 94 -34
56 -36 64 -36 140 1 90 10 115 71 185 68 77 164 106 271 81z m932 -1 c55 -12
133 -68 163 -117 36 -58 49 -137 34 -209 -16 -75 -50 -125 -118 -171 -52 -36
-55 -37 -149 -37 -89 0 -99 2 -144 30 -203 126 -163 440 63 501 58 16 94 16
151 3z m10051 -12 c130 -64 187 -198 145 -343 -13 -48 -27 -69 -72 -111 -33
-32 -69 -57 -92 -63 -26 -7 -1194 -9 -3609 -8 l-3570 3 -44 30 c-23 17 -61 57
-83 89 -39 57 -40 58 -40 150 0 87 2 95 33 142 39 61 102 108 162 122 30 7
1253 9 3590 8 3365 -1 3547 -2 3580 -19z m5548 -7030 c2 -4801 0 -5408 -13
-5413 -10 -4 -15 -20 -15 -45 0 -49 -38 -154 -80 -219 -53 -82 -168 -171 -264
-203 -46 -16 -663 -17 -8778 -17 -8165 0 -8733 1 -8781 17 -151 49 -270 167
-333 329 -19 48 -19 191 -22 5484 -1 2989 0 5445 3 5458 l5 22 9138 -2 9137
-3 3 -5408z"/>
<path d="M10754 9422 c-5 -4 -20 -34 -33 -67 -13 -33 -33 -87 -46 -120 -13
-33 -94 -244 -180 -470 -86 -225 -160 -419 -165 -430 -9 -22 -23 -56 -290
-755 -100 -261 -197 -515 -217 -565 -55 -140 -71 -183 -238 -620 -86 -225
-167 -437 -180 -470 -32 -82 -68 -174 -250 -650 -174 -456 -187 -491 -238
-620 -19 -49 -117 -304 -217 -565 -208 -545 -233 -609 -272 -705 -15 -38 -24
-73 -20 -77 5 -5 219 -7 478 -6 l469 3 3 25 c3 23 2322 6023 2344 6064 7 13 6
21 -3 27 -17 11 -930 12 -945 1z"/>
<path d="M6850 7674 c-300 -210 -1304 -912 -1463 -1022 -34 -24 -152 -107
-262 -184 -110 -78 -231 -161 -268 -186 -37 -25 -66 -50 -64 -56 2 -6 39 -36
83 -67 210 -148 779 -546 1029 -720 258 -180 647 -452 1103 -771 101 -70 189
-128 195 -128 12 1 479 642 485 666 2 6 -109 90 -245 186 -347 245 -786 552
-995 698 -98 68 -178 129 -178 135 0 12 688 498 750 530 19 10 55 35 80 55 25
21 144 106 265 190 291 202 327 230 322 243 -14 37 -472 662 -485 664 -10 1
-168 -103 -352 -233z"/>
<path d="M12682 7613 c-116 -164 -223 -315 -238 -336 -27 -37 -27 -38 -8 -56
10 -11 183 -133 384 -273 910 -634 1020 -712 1020 -723 0 -6 -42 -40 -92 -75
-51 -35 -237 -165 -413 -289 -176 -123 -452 -317 -614 -430 -161 -113 -295
-211 -298 -217 -2 -6 35 -65 82 -130 47 -65 154 -215 237 -331 84 -117 158
-213 165 -213 7 0 82 49 166 109 85 60 219 153 298 208 79 54 347 241 594 414
248 173 578 405 735 514 439 306 620 435 620 443 0 7 -19 21 -400 285 -290
202 -240 167 -720 503 -212 148 -433 303 -493 344 -59 41 -259 182 -445 312
-185 130 -344 237 -353 238 -10 0 -98 -116 -227 -297z"/>
</g>
</svg>
